# xmcd
#
# Track frame offsets:
#	150
#	15899
#	35072
#	51072
#	69142
#	85195
#	101135
#	117738
#	132885
#	151651
#	168975
#	186109
#	200155
#	215062
#	231637
#	245951
#	263749
#	279462
#	294870
#	310223
#
# Disc length: 4329 seconds
#
# Revision: 1
# Processed by: cddbd v1.5.2PL0 Copyright (c) Steve Scherf et al.
# Submitted via: audiograbber 1.83.01
#
DISCID=2610e714
DTITLE=Various Artist - Award Winning Country 12
DYEAR=2013
DGENRE=Country
TTITLE0=Kenny Chesney and Tim McGraw - Feel Like A Rock Star
TTITLE1=Miranda Lambert - Over You
TTITLE2=Blake Shelton - Drink On It
TTITLE3=Carrie Underwood - Blown Away
TTITLE4=Little Big Town - Pontoon
TTITLE5=Florida Gergia Line - Cruise
TTITLE6=Luke bryan - I Don't Want This Night To End
TTITLE7=Love and Theft - Runnin' Out Of Air
TTITLE8=Kenny chesney - Come Over
TTITLE9=Hunter Hayes - Wanted
TTITLE10=Troy Cassar-Daley - Country Is
TTITLE11=Kasey Chambers/Shane Nicholson - Adam And Eve
TTITLE12=Pistol Annies - Takin' Pills
TTITLE13=The McClymonts - Piece Of Me
TTITLE14=Catherine Britt - Charlestwon Road
TTITLE15=Dean Brody - Canadian Girls
TTITLE16=Kacey Musgraves - Merry Go Round
TTITLE17=Chelsea Basham - Laugh It Off
TTITLE18=Camille and Stuie - Things Change
TTITLE19=Pete Denahy - Yackandandah 1852
EXTD=CD and DVD
EXTT0=
EXTT1=
EXTT2=
EXTT3=
EXTT4=
EXTT5=
EXTT6=
EXTT7=
EXTT8=
EXTT9=
EXTT10=
EXTT11=
EXTT12=
EXTT13=
EXTT14=
EXTT15=
EXTT16=
EXTT17=
EXTT18=
EXTT19=
PLAYORDER=
